<svg xmlns="http://www.w3.org/2000/svg" xml:space="preserve" width="317.796" height="366.266"><path d="M195.623 142.049a1.634 1.634 0 0 1-.195-.426m0 0c-9.724-11.83-19.167-25.003-26.387-36.69-14.853-24.04-30.857-8.668-22.894 9.875 7.922 18.451 24.704 47.982 34.501 60.872 11.963 15.738 12.667 33.704-6.837 27.033-19.505-6.672-38.855-55.254-52.483-49.4-13.627 5.853-4.94 21.741 1.438 32.525-5.455 5.347-19.51 35.869-1.082 74.199 18.427 38.33 72.16 49.18 65.841 26.191-2.977-10.831-33.722-39.745-21.68-48.627 12.677-9.35 28.167 18.38 39.737 32.677 11.57 14.296 39.128 33.03 73.496 33.642 19.415.346 56.72-9.466 96.317-18.57 58.891-13.542 54.85 30.743 33.513 25.421-21.336-5.321-81.043-1.516-132.553 50.422-51.509 51.938-45.359 90.719-45.359 90.719m-35.568-310.29c11.612 14.127 23.226 26.532 30.277 32.587 12.957 11.125 24.188 4.432 31.102-4.719 6.913-9.15 8.425-29.032-14.477-38.45-22.288-9.163-48.518 5.182-46.902 10.583m140.02 152.785s9.322-10.189 21.156-31.564c9.38-16.945 17.713-36.497 21.752-55.44 3.98-18.668-13.418-23.768-21.073-7.435-7.254 15.478-16.385 35.711-30.908 50.974-9.6 10.09-25.197 6.734-15.248-8.006 9.35-13.852 16.954-27.287 23.174-41.31 7.273-16.398-8.619-19.08-16.253-6.797-20.499 32.984-75.452 97.76-110.278 77.92" style="fill:none;stroke:#000;stroke-width:7;stroke-linecap:round;stroke-dasharray:none;stroke-opacity:1" transform="translate(-108.992 -89.146)"/></svg>