<svg xmlns="http://www.w3.org/2000/svg" xml:space="preserve" width="512" height="512"><path d="M334.684 473.178s10.492-8.565 14.128-22.235c10.383-39.03-15.103-76.715-45.93-107.03-46.527-45.756-91.9-57.333-145.003-113.7-37.07-39.347-68.921-85.31-71.064-119.86-3.263-52.63 47.03-72.475 74.396-35.907 14.546 19.44 5.95 44.59 5.95 44.59M108.756 256.14s-16.712 36.853-11.467 77.549c5.245 40.696 31.946 76.59 70.801 83.614 38.855 7.024 63.882-10.913 74.228-26.119 6.837-10.048 9.72-15.92 9.72-15.92M309.34 276.996s20.876-35.305 59.634-23.556c38.757 11.75 66.745 53.405 58.415 88.231-8.33 34.826-31.033 40.16-31.033 40.16" style="fill:none;stroke:#000;stroke-width:32.7416;stroke-linecap:round;stroke-dasharray:none"/><ellipse cx="278.813" cy="439.058" rx="19.882" ry="20.593" style="fill:#000;fill-opacity:1;stroke:none;stroke-width:82.0275;stroke-linecap:round;stroke-dasharray:none;stroke-opacity:1"/></svg>